<?xml version="1.0" encoding="UTF-8" standalone="no"?>
<!-- Created with Inkscape (http://www.inkscape.org/) -->

<svg
   xmlns:dc="http://purl.org/dc/elements/1.1/"
   xmlns:cc="http://creativecommons.org/ns#"
   xmlns:rdf="http://www.w3.org/1999/02/22-rdf-syntax-ns#"
   xmlns:svg="http://www.w3.org/2000/svg"
   xmlns="http://www.w3.org/2000/svg"
   xmlns:sodipodi="http://sodipodi.sourceforge.net/DTD/sodipodi-0.dtd"
   xmlns:inkscape="http://www.inkscape.org/namespaces/inkscape"
   width="1200"
   height="630"
   viewBox="0 0 720 378"
   id="svg2"
   version="1.1"
   inkscape:version="0.92.1 r15371"
   sodipodi:docname="opengraph.yellow.svg"
   inkscape:export-filename="C:\Users\FMVA77HWZ\Desktop\mini_rogo.png"
   inkscape:export-xdpi="960"
   inkscape:export-ydpi="960">
  <defs
     id="defs4" />
  <sodipodi:namedview
     id="base"
     pagecolor="#ffffff"
     bordercolor="#666666"
     borderopacity="1.0"
     inkscape:pageopacity="0"
     inkscape:pageshadow="2"
     inkscape:zoom="0.52333333"
     inkscape:cx="600"
     inkscape:cy="315"
     inkscape:document-units="px"
     inkscape:current-layer="svg2"
     showgrid="false"
     units="px"
     inkscape:window-width="1853"
     inkscape:window-height="1057"
     inkscape:window-x="-8"
     inkscape:window-y="-8"
     inkscape:window-maximized="1"
     inkscape:showpageshadow="false"
     inkscape:pagecheckerboard="true"
     showborder="true"
     scale-x="0.8" />
  <metadata
     id="metadata7">
    <rdf:RDF>
      <cc:Work
         rdf:about="">
        <dc:format>image/svg+xml</dc:format>
        <dc:type
           rdf:resource="http://purl.org/dc/dcmitype/StillImage" />
        <dc:title></dc:title>
      </cc:Work>
    </rdf:RDF>
  </metadata>
  <rect
     style="opacity:1;fill:#ead447;fill-opacity:1;stroke:none;stroke-width:37.32354736;stroke-linecap:square;stroke-linejoin:miter;stroke-miterlimit:4;stroke-dasharray:none;stroke-dashoffset:0;stroke-opacity:1;paint-order:normal"
     id="rect4528"
     width="720"
     height="378"
     x="0"
     y="6.7762636e-021" />
  <path
     inkscape:connector-curvature="0"
     id="path4562"
     style="font-style:normal;font-variant:normal;font-weight:normal;font-stretch:normal;font-size:medium;line-height:1.25;font-family:Ubuntu;-inkscape-font-specification:Ubuntu;font-variant-ligatures:normal;font-variant-caps:normal;font-variant-numeric:normal;font-feature-settings:normal;text-align:center;letter-spacing:0px;word-spacing:0px;writing-mode:lr-tb;text-anchor:middle;fill:#e6c745;fill-opacity:1;stroke:none;stroke-width:5.76214314"
     d="M 102.4741,213.63316 V 200.66833 H 88.068737 v 12.96483 z m 5.76214,7.77889 h -5.76214 v -3.16918 H 88.068737 v 4.0335 H 82.306594 V 196.05862 H 108.23624 Z M 87.78063,167.82412 q 1.440536,4.0335 7.202679,10.37186 5.185931,-6.91458 6.626461,-10.37186 z m 7.202679,18.43886 q -10.08375,9.21942 -18.726965,12.3886 l -2.592965,-5.76214 q 8.067001,-2.59296 17.574537,-10.94807 -2.304857,-2.30486 -6.05025,-8.35511 -2.881072,6.62647 -5.762143,9.50754 l -4.321608,-4.32161 q 6.914572,-9.21943 10.659965,-23.04857 l 6.05025,1.72864 q 1.152429,1.15243 -0.864321,1.44054 l -1.440536,3.45728 h 14.693467 l 0.86432,-1.44053 4.60971,3.74539 q 1.15243,0.86432 -1.15242,1.72864 -4.0335,9.21943 -9.507541,15.55779 9.795641,7.49078 16.710211,9.79564 l -2.30485,6.33836 Q 106.5076,195.77051 94.983309,186.26298 Z M 73.951487,160.33333 v 21.31993 h -7.202679 v 10.65997 h 6.626464 v 5.47403 h -6.626464 v 13.25293 l 10.08375,-3.16918 1.152429,5.18593 -26.505859,7.49079 q -0.288107,2.30485 -1.440535,1.15243 l -2.304858,-6.33836 3.457286,-0.57622 v -26.79396 h 5.474036 q 2.304857,0.28811 0.288107,1.72864 v 23.62479 l 4.033501,-0.86432 v -30.82747 h -5.185929 -4.897822 v -21.31993 z m -5.762144,16.71022 v -12.1005 H 56.665057 v 12.1005 z" />
  <path
     style="fill:none;stroke:#e6e673;stroke-width:5.29200029;stroke-linecap:butt;stroke-linejoin:round;stroke-miterlimit:4;stroke-dasharray:none;stroke-opacity:1"
     d="M 130.81476,30 V 135.35406 H 30"
     id="path4499"
     inkscape:connector-curvature="0" />
  <path
     style="fill:none;stroke:#e6e673;stroke-width:5.29200029;stroke-linecap:butt;stroke-linejoin:round;stroke-miterlimit:4;stroke-dasharray:none;stroke-opacity:1"
     d="M 690,135.35416 H 589.18522 V 30"
     id="path4499-5"
     inkscape:connector-curvature="0" />
  <path
     style="fill:none;stroke:#e6e673;stroke-width:5.29200029;stroke-linecap:butt;stroke-linejoin:round;stroke-miterlimit:4;stroke-dasharray:none;stroke-opacity:1"
     d="M 589.18522,348 V 242.64589 H 690"
     id="path4499-2"
     inkscape:connector-curvature="0" />
  <path
     style="fill:none;stroke:#e6e673;stroke-width:5.29200029;stroke-linecap:butt;stroke-linejoin:round;stroke-miterlimit:4;stroke-dasharray:none;stroke-opacity:1"
     d="M 30,242.64589 H 130.81477 V 348"
     id="path4499-27"
     inkscape:connector-curvature="0" />
  <path
     inkscape:connector-curvature="0"
     id="path4568"
     style="font-style:normal;font-variant:normal;font-weight:normal;font-stretch:normal;font-size:medium;line-height:1.25;font-family:Ubuntu;-inkscape-font-specification:Ubuntu;font-variant-ligatures:normal;font-variant-caps:normal;font-variant-numeric:normal;font-feature-settings:normal;text-align:center;letter-spacing:0px;word-spacing:0px;writing-mode:lr-tb;text-anchor:middle;fill:#ffffff;fill-opacity:1;stroke:none;stroke-width:5.94578314"
     d="m 224.23936,212.13618 q -6.54512,-0.15221 -9.28494,-2.81592 -2.73982,-2.66371 -2.73982,-8.29556 v -47.49016 l 7.07786,-1.21769 v 47.56626 q 0,1.75044 0.30443,2.89203 0.30442,1.14159 0.98938,1.82655 0.68495,0.68495 1.82654,1.06548 1.14159,0.30442 2.81592,0.53274 z" />
  <path
     inkscape:connector-curvature="0"
     id="path4570"
     style="font-style:normal;font-variant:normal;font-weight:normal;font-stretch:normal;font-size:medium;line-height:1.25;font-family:Ubuntu;-inkscape-font-specification:Ubuntu;font-variant-ligatures:normal;font-variant-caps:normal;font-variant-numeric:normal;font-feature-settings:normal;text-align:center;letter-spacing:0px;word-spacing:0px;writing-mode:lr-tb;text-anchor:middle;fill:#ffffff;fill-opacity:1;stroke:none;stroke-width:5.94578314"
     d="m 268.10972,191.58756 q 0,4.71857 -1.36991,8.52387 -1.3699,3.8053 -3.8814,6.54512 -2.4354,2.73982 -5.86017,4.26194 -3.42477,1.44601 -7.45839,1.44601 -4.03362,0 -7.45839,-1.44601 -3.42477,-1.52212 -5.93627,-4.26194 -2.43539,-2.73982 -3.8053,-6.54512 -1.36991,-3.8053 -1.36991,-8.52387 0,-4.64247 1.36991,-8.44777 1.36991,-3.88141 3.8053,-6.62123 2.5115,-2.73981 5.93627,-4.18583 3.42477,-1.52212 7.45839,-1.52212 4.03362,0 7.45839,1.52212 3.42477,1.44602 5.86017,4.18583 2.5115,2.73982 3.8814,6.62123 1.36991,3.8053 1.36991,8.44777 z m -7.38228,0 q 0,-6.69733 -3.04424,-10.57874 -2.96814,-3.95752 -8.14335,-3.95752 -5.17521,0 -8.21945,3.95752 -2.96813,3.88141 -2.96813,10.57874 0,6.69733 2.96813,10.65484 3.04424,3.88141 8.21945,3.88141 5.17521,0 8.14335,-3.88141 3.04424,-3.95751 3.04424,-10.65484 z" />
  <path
     inkscape:connector-curvature="0"
     id="path4572"
     style="font-style:normal;font-variant:normal;font-weight:normal;font-stretch:normal;font-size:medium;line-height:1.25;font-family:Ubuntu;-inkscape-font-specification:Ubuntu;font-variant-ligatures:normal;font-variant-caps:normal;font-variant-numeric:normal;font-feature-settings:normal;text-align:center;letter-spacing:0px;word-spacing:0px;writing-mode:lr-tb;text-anchor:middle;fill:#ffffff;fill-opacity:1;stroke:none;stroke-width:5.94578314"
     d="m 278.06772,172.94158 q 2.43539,-0.60885 6.46901,-1.2938 4.03362,-0.68496 9.28494,-0.68496 4.71857,0 7.83892,1.36991 3.12035,1.2938 4.94689,3.7292 1.90265,2.35928 2.66371,5.70795 0.76106,3.34866 0.76106,7.38228 v 22.22296 h -7.07786 v -20.70084 q 0,-3.65309 -0.53274,-6.24069 -0.45664,-2.58761 -1.59823,-4.18583 -1.14159,-1.59823 -3.04424,-2.28318 -1.90265,-0.76106 -4.71857,-0.76106 -1.14159,0 -2.35929,0.0761 -1.2177,0.0761 -2.35929,0.22832 -1.06548,0.0761 -1.97875,0.22832 -0.83717,0.15221 -1.2177,0.22832 v 33.41054 h -7.07786 z" />
  <path
     inkscape:connector-curvature="0"
     id="path4574"
     style="font-style:normal;font-variant:normal;font-weight:normal;font-stretch:normal;font-size:medium;line-height:1.25;font-family:Ubuntu;-inkscape-font-specification:Ubuntu;font-variant-ligatures:normal;font-variant-caps:normal;font-variant-numeric:normal;font-feature-settings:normal;text-align:center;letter-spacing:0px;word-spacing:0px;writing-mode:lr-tb;text-anchor:middle;fill:#ffffff;fill-opacity:1;stroke:none;stroke-width:5.94578314"
     d="m 356.70189,191.58756 q 0,4.71857 -1.3699,8.52387 -1.36991,3.8053 -3.88141,6.54512 -2.43539,2.73982 -5.86017,4.26194 -3.42477,1.44601 -7.45839,1.44601 -4.03362,0 -7.45839,-1.44601 -3.42477,-1.52212 -5.93627,-4.26194 -2.43539,-2.73982 -3.8053,-6.54512 -1.36991,-3.8053 -1.36991,-8.52387 0,-4.64247 1.36991,-8.44777 1.36991,-3.88141 3.8053,-6.62123 2.5115,-2.73981 5.93627,-4.18583 3.42477,-1.52212 7.45839,-1.52212 4.03362,0 7.45839,1.52212 3.42478,1.44602 5.86017,4.18583 2.5115,2.73982 3.88141,6.62123 1.3699,3.8053 1.3699,8.44777 z m -7.38228,0 q 0,-6.69733 -3.04424,-10.57874 -2.96814,-3.95752 -8.14335,-3.95752 -5.17521,0 -8.21945,3.95752 -2.96813,3.88141 -2.96813,10.57874 0,6.69733 2.96813,10.65484 3.04424,3.88141 8.21945,3.88141 5.17521,0 8.14335,-3.88141 3.04424,-3.95751 3.04424,-10.65484 z" />
  <path
     inkscape:connector-curvature="0"
     id="path4576"
     style="font-style:normal;font-variant:normal;font-weight:normal;font-stretch:normal;font-size:medium;line-height:1.25;font-family:Ubuntu;-inkscape-font-specification:Ubuntu;font-variant-ligatures:normal;font-variant-caps:normal;font-variant-numeric:normal;font-feature-settings:normal;text-align:center;letter-spacing:0px;word-spacing:0px;writing-mode:lr-tb;text-anchor:middle;fill:#ffffff;fill-opacity:1;stroke:none;stroke-width:5.94578314"
     d="m 391.47046,207.41761 q -0.91328,0.60885 -3.57699,1.59823 -2.5876,0.91327 -6.08848,0.91327 -3.57698,0 -6.77344,-1.14159 -3.12034,-1.14159 -5.47963,-3.50088 -2.35929,-2.43539 -3.7292,-6.01238 -1.3699,-3.57698 -1.3699,-8.52387 0,-4.33804 1.2938,-7.91503 1.2938,-3.65309 3.72919,-6.24069 2.5115,-2.66371 6.08849,-4.10973 3.57698,-1.52212 8.06723,-1.52212 4.9469,0 8.59999,0.76106 3.72919,0.68496 6.24069,1.29381 v 35.31319 q 0,9.13272 -4.71857,13.24245 -4.71858,4.10972 -14.30794,4.10972 -3.72919,0 -7.07786,-0.60884 -3.27256,-0.60885 -5.70795,-1.44602 l 1.2938,-6.16459 q 2.13097,0.83717 5.17521,1.44602 3.12035,0.68495 6.46902,0.68495 6.3168,0 9.05661,-2.5115 2.81593,-2.51149 2.81593,-7.99113 z m -0.0761,-29.37693 q -1.06548,-0.30442 -2.89203,-0.53274 -1.75044,-0.30442 -4.79468,-0.30442 -5.70795,0 -8.8283,3.72919 -3.04424,3.7292 -3.04424,9.89379 0,3.42477 0.83717,5.86016 0.91327,2.43539 2.35928,4.03362 1.52212,1.59823 3.42478,2.35929 1.97875,0.76106 4.03361,0.76106 2.81593,0 5.17521,-0.76106 2.35929,-0.83717 3.7292,-1.90266 z" />
  <path
     inkscape:connector-curvature="0"
     id="path4578"
     style="font-style:normal;font-variant:normal;font-weight:normal;font-stretch:normal;font-size:medium;line-height:1.25;font-family:Ubuntu;-inkscape-font-specification:Ubuntu;font-variant-ligatures:normal;font-variant-caps:normal;font-variant-numeric:normal;font-feature-settings:normal;text-align:center;letter-spacing:0px;word-spacing:0px;writing-mode:lr-tb;text-anchor:middle;fill:#ffffff;fill-opacity:1;stroke:none;stroke-width:5.94578314"
     d="m 424.05335,206.27602 q 2.51149,0 4.41415,-0.0761 1.97875,-0.15221 3.27255,-0.45663 v -11.79644 q -0.76106,-0.38053 -2.51149,-0.60885 -1.67434,-0.30442 -4.10973,-0.30442 -1.59823,0 -3.42477,0.22832 -1.75044,0.22832 -3.27256,0.98938 -1.44601,0.68495 -2.43539,1.97875 -0.98938,1.2177 -0.98938,3.27256 0,3.8053 2.43539,5.32742 2.43539,1.44602 6.62123,1.44602 z m -0.60885,-35.46541 q 4.26194,0 7.15396,1.14159 2.96814,1.06549 4.71858,3.12035 1.82654,1.97875 2.5876,4.79468 0.76106,2.73981 0.76106,6.08848 v 24.73446 q -0.91327,0.15221 -2.5876,0.45663 -1.59823,0.22832 -3.65309,0.45664 -2.05486,0.22832 -4.49026,0.38053 -2.35928,0.22832 -4.71857,0.22832 -3.34867,0 -6.16459,-0.68496 -2.81592,-0.68495 -4.87078,-2.13096 -2.05487,-1.52213 -3.19646,-3.95752 -1.14159,-2.43539 -1.14159,-5.86016 0,-3.27256 1.29381,-5.63185 1.3699,-2.35928 3.65308,-3.8053 2.28319,-1.44601 5.32743,-2.13097 3.04424,-0.68495 6.3929,-0.68495 1.06549,0 2.20708,0.15221 1.14159,0.0761 2.13097,0.30442 1.06548,0.15222 1.82654,0.30443 0.76106,0.15221 1.06548,0.22832 v -1.97876 q 0,-1.75044 -0.38053,-3.42477 -0.38053,-1.75044 -1.3699,-3.04424 -0.98938,-1.36991 -2.73982,-2.13097 -1.67433,-0.83717 -4.41415,-0.83717 -3.50088,0 -6.16459,0.53274 -2.5876,0.45664 -3.88141,0.98938 l -0.83716,-5.86016 q 1.36991,-0.60885 4.56636,-1.14159 3.19645,-0.60885 6.92565,-0.60885 z" />
  <path
     inkscape:connector-curvature="0"
     id="path4580"
     style="font-style:normal;font-variant:normal;font-weight:normal;font-stretch:normal;font-size:medium;line-height:1.25;font-family:Ubuntu;-inkscape-font-specification:Ubuntu;font-variant-ligatures:normal;font-variant-caps:normal;font-variant-numeric:normal;font-feature-settings:normal;text-align:center;letter-spacing:0px;word-spacing:0px;writing-mode:lr-tb;text-anchor:middle;fill:#ffffff;fill-opacity:1;stroke:none;stroke-width:5.94578314"
     d="m 464.95915,170.96282 q 0.91328,0 2.05487,0.15221 1.21769,0.0761 2.35928,0.30443 1.14159,0.15221 2.05487,0.38053 0.98937,0.15221 1.44601,0.30442 l -1.2177,6.16459 q -0.83716,-0.30442 -2.81592,-0.68495 -1.90265,-0.45664 -4.94689,-0.45664 -1.97876,0 -3.95751,0.45664 -1.90266,0.38053 -2.5115,0.53274 v 33.25833 h -7.07786 v -37.9008 q 2.51149,-0.91327 6.24069,-1.67433 3.7292,-0.83717 8.37166,-0.83717 z" />
  <path
     inkscape:connector-curvature="0"
     id="path4582"
     style="font-style:normal;font-variant:normal;font-weight:normal;font-stretch:normal;font-size:medium;line-height:1.25;font-family:Ubuntu;-inkscape-font-specification:Ubuntu;font-variant-ligatures:normal;font-variant-caps:normal;font-variant-numeric:normal;font-feature-settings:normal;text-align:center;letter-spacing:0px;word-spacing:0px;writing-mode:lr-tb;text-anchor:middle;fill:#ffffff;fill-opacity:1;stroke:none;stroke-width:5.94578314"
     d="m 493.17307,206.27602 q 2.5115,0 4.41415,-0.0761 1.97875,-0.15221 3.27256,-0.45663 v -11.79644 q -0.76107,-0.38053 -2.5115,-0.60885 -1.67434,-0.30442 -4.10973,-0.30442 -1.59823,0 -3.42477,0.22832 -1.75044,0.22832 -3.27256,0.98938 -1.44601,0.68495 -2.43539,1.97875 -0.98938,1.2177 -0.98938,3.27256 0,3.8053 2.43539,5.32742 2.4354,1.44602 6.62123,1.44602 z m -0.60885,-35.46541 q 4.26194,0 7.15396,1.14159 2.96814,1.06549 4.71858,3.12035 1.82654,1.97875 2.5876,4.79468 0.76106,2.73981 0.76106,6.08848 v 24.73446 q -0.91327,0.15221 -2.5876,0.45663 -1.59823,0.22832 -3.65309,0.45664 -2.05486,0.22832 -4.49026,0.38053 -2.35928,0.22832 -4.71857,0.22832 -3.34866,0 -6.16459,-0.68496 -2.81592,-0.68495 -4.87078,-2.13096 -2.05487,-1.52213 -3.19646,-3.95752 -1.14159,-2.43539 -1.14159,-5.86016 0,-3.27256 1.29381,-5.63185 1.3699,-2.35928 3.65308,-3.8053 2.28319,-1.44601 5.32743,-2.13097 3.04424,-0.68495 6.3929,-0.68495 1.06549,0 2.20708,0.15221 1.14159,0.0761 2.13097,0.30442 1.06548,0.15222 1.82654,0.30443 0.76106,0.15221 1.06549,0.22832 v -1.97876 q 0,-1.75044 -0.38053,-3.42477 -0.38054,-1.75044 -1.36991,-3.04424 -0.98938,-1.36991 -2.73982,-2.13097 -1.67433,-0.83717 -4.41415,-0.83717 -3.50088,0 -6.16459,0.53274 -2.5876,0.45664 -3.88141,0.98938 l -0.83716,-5.86016 q 1.36991,-0.60885 4.56636,-1.14159 3.19645,-0.60885 6.92565,-0.60885 z" />
  <path
     inkscape:connector-curvature="0"
     id="path4565"
     style="font-style:normal;font-variant:normal;font-weight:normal;font-stretch:normal;font-size:medium;line-height:1.25;font-family:Ubuntu;-inkscape-font-specification:Ubuntu;font-variant-ligatures:normal;font-variant-caps:normal;font-variant-numeric:normal;font-feature-settings:normal;text-align:center;letter-spacing:0px;word-spacing:0px;writing-mode:lr-tb;text-anchor:middle;fill:#e6c745;fill-opacity:1;stroke:none;stroke-width:5.76214314"
     d="m 622.27965,172.14573 h 9.50754 v 5.47403 h -9.50754 v 7.77889 q 5.18593,2.88108 9.79565,8.64322 l -3.16918,6.33836 q -3.7454,-4.60972 -6.62647,-7.7789 v 29.67504 h -5.76214 v -27.94639 q -2.88107,7.77889 -8.067,14.11725 l -3.45729,-6.05025 q 9.50754,-12.1005 11.52429,-24.77722 h -9.21943 v -5.47403 h 9.21943 v -16.13401 h 5.47404 q 2.30485,0.28811 0.2881,1.72865 z m 17.28643,30.53935 q 7.7789,-8.93132 8.64322,-20.74371 h -9.50754 v 39.75879 h -5.76214 v -45.23283 h 15.26968 v -10.08375 h -16.134 v -5.47403 h 39.47068 v 5.47403 h -17.57454 v 10.08375 h 15.55779 v 40.62311 q 0,4.60972 -4.60972,4.60972 h -5.47403 l -1.15243,-5.47404 h 4.60971 q 0.86432,0 0.86432,-0.86432 v -15.55779 l -3.16918,4.32161 q -4.0335,-6.33836 -8.93132,-10.37186 -4.3216,9.79565 -9.21943,14.98157 z m 13.54104,-14.40535 q 7.20268,4.60971 10.65996,9.79564 v -16.134 h -9.79564 q -0.28811,2.88107 -0.86432,6.33836 z" />
  <g
     id="g4560"
     transform="translate(-47.006371,83.904449)">
    <rect
       y="354.09555"
       x="47.006371"
       height="378"
       width="720"
       id="rect4528-0"
       style="opacity:1;fill:#ead447;fill-opacity:1;stroke:none;stroke-width:37.32354736;stroke-linecap:square;stroke-linejoin:miter;stroke-miterlimit:4;stroke-dasharray:none;stroke-dashoffset:0;stroke-opacity:1;paint-order:normal" />
    <text
       id="text4495-8"
       y="570.32166"
       x="127.87243"
       style="font-style:normal;font-variant:normal;font-weight:normal;font-stretch:normal;font-size:73.75543213px;line-height:1.25;font-family:Ubuntu;-inkscape-font-specification:Ubuntu;font-variant-ligatures:normal;font-variant-caps:normal;font-variant-numeric:normal;font-feature-settings:normal;text-align:center;letter-spacing:0px;word-spacing:0px;writing-mode:lr-tb;text-anchor:middle;fill:#e6c745;fill-opacity:1;stroke:none;stroke-width:5.76214314"
       xml:space="preserve"><tspan
         style="font-style:normal;font-variant:normal;font-weight:normal;font-stretch:normal;font-family:Ubuntu;-inkscape-font-specification:Ubuntu;fill:#e6c745;fill-opacity:1;stroke-width:5.76214314"
         y="570.32166"
         x="127.87243"
         id="tspan4493-6"
         sodipodi:role="line">路</tspan></text>
    <path
       inkscape:connector-curvature="0"
       id="path4499-23"
       d="M 177.82113,384.09554 V 489.4496 H 77.00637"
       style="fill:none;stroke:#e6e673;stroke-width:5.29200029;stroke-linecap:butt;stroke-linejoin:round;stroke-miterlimit:4;stroke-dasharray:none;stroke-opacity:1" />
    <path
       inkscape:connector-curvature="0"
       id="path4499-5-4"
       d="M 737.00637,489.4497 H 636.1916 V 384.09554"
       style="fill:none;stroke:#e6e673;stroke-width:5.29200029;stroke-linecap:butt;stroke-linejoin:round;stroke-miterlimit:4;stroke-dasharray:none;stroke-opacity:1" />
    <path
       inkscape:connector-curvature="0"
       id="path4499-2-5"
       d="M 636.1916,702.09555 V 596.74143 h 100.81477"
       style="fill:none;stroke:#e6e673;stroke-width:5.29200029;stroke-linecap:butt;stroke-linejoin:round;stroke-miterlimit:4;stroke-dasharray:none;stroke-opacity:1" />
    <path
       inkscape:connector-curvature="0"
       id="path4499-27-6"
       d="M 77.00637,596.74143 H 177.82114 V 702.09555"
       style="fill:none;stroke:#e6e673;stroke-width:5.29200029;stroke-linecap:butt;stroke-linejoin:round;stroke-miterlimit:4;stroke-dasharray:none;stroke-opacity:1" />
    <text
       id="text4495-0-5"
       y="565.47064"
       x="406.83459"
       style="font-style:normal;font-variant:normal;font-weight:normal;font-stretch:normal;font-size:76.1060257px;line-height:1.25;font-family:Ubuntu;-inkscape-font-specification:Ubuntu;font-variant-ligatures:normal;font-variant-caps:normal;font-variant-numeric:normal;font-feature-settings:normal;text-align:center;letter-spacing:0px;word-spacing:0px;writing-mode:lr-tb;text-anchor:middle;fill:#ffffff;fill-opacity:1;stroke:none;stroke-width:5.94578314"
       xml:space="preserve"><tspan
         style="font-style:normal;font-variant:normal;font-weight:normal;font-stretch:normal;font-family:Ubuntu;-inkscape-font-specification:Ubuntu;fill:#ffffff;fill-opacity:1;stroke-width:5.94578314"
         y="565.47064"
         x="406.83459"
         id="tspan4493-1-2"
         sodipodi:role="line">lonogara</tspan></text>
    <text
       id="text4495-4-1"
       y="570.32166"
       x="685.99622"
       style="font-style:normal;font-variant:normal;font-weight:normal;font-stretch:normal;font-size:73.75543213px;line-height:1.25;font-family:Ubuntu;-inkscape-font-specification:Ubuntu;font-variant-ligatures:normal;font-variant-caps:normal;font-variant-numeric:normal;font-feature-settings:normal;text-align:center;letter-spacing:0px;word-spacing:0px;writing-mode:lr-tb;text-anchor:middle;fill:#e6c745;fill-opacity:1;stroke:none;stroke-width:5.76214314"
       xml:space="preserve"><tspan
         style="font-style:normal;font-variant:normal;font-weight:normal;font-stretch:normal;font-family:Ubuntu;-inkscape-font-specification:Ubuntu;fill:#e6c745;fill-opacity:1;stroke-width:5.76214314"
         y="570.32166"
         x="685.99622"
         id="tspan4493-4-2"
         sodipodi:role="line">柄</tspan></text>
  </g>
</svg>
